<svg width="28" height="21" viewBox="0 0 28 21" fill="none" xmlns="http://www.w3.org/2000/svg">
<path d="M3.78925 0.327945C3.5252 0.115137 3.17154 -0.00261763 2.80444 4.41634e-05C2.43735 0.00270595 2.08619 0.125571 1.8266 0.342176C1.56702 0.558781 1.41977 0.851796 1.41658 1.15811C1.41339 1.46442 1.55451 1.75953 1.80955 1.97987L5.20333 4.81173C3.20122 6.06878 1.45393 7.79547 0.14766 9.97779C0.050553 10.1399 0 10.3187 0 10.5C0 10.6813 0.050553 10.8601 0.14766 11.0222C3.16902 16.0656 8.53411 18.6778 14 18.6778C16.1771 18.6778 18.3402 18.2631 20.3423 17.4453L24.2107 20.6721C24.4748 20.8849 24.8285 21.0026 25.1956 21C25.5627 20.9973 25.9138 20.8744 26.1734 20.6578C26.433 20.4412 26.5802 20.1482 26.5834 19.8419C26.5866 19.5356 26.4455 19.2405 26.1905 19.0201L3.78925 0.327945ZM18.2198 15.6731C16.8478 16.1205 15.4197 16.3413 14 16.3413C9.84318 16.3413 5.59675 14.4487 2.98141 10.5C4.12527 8.77214 5.58275 7.43915 7.20684 6.48468L10.2086 8.98944C9.8335 9.64361 9.71082 10.3788 9.85748 11.0936C10.0041 11.8083 10.4129 12.4676 11.0275 12.9804C11.642 13.4932 12.432 13.8343 13.2887 13.9566C14.1453 14.079 15.0263 13.9766 15.8103 13.6637L18.2198 15.6731ZM23.1733 12.715C23.8495 12.0655 24.4698 11.3283 25.0186 10.5C22.4032 6.55128 18.1582 4.65869 14 4.65869C13.8432 4.65869 13.6864 4.66142 13.5296 4.66687L11.0304 2.58269C12.0067 2.4095 13.002 2.32218 14 2.32217C19.4645 2.32217 24.831 4.9344 27.8523 9.97779C27.9494 10.1399 28 10.3187 28 10.5C28 10.6813 27.9494 10.8601 27.8523 11.0222C27.1362 12.2329 26.2299 13.3585 25.1572 14.3693L23.1733 12.715Z" fill="#00B7C2"/>
</svg>
